<svg xmlns="http://www.w3.org/2000/svg" version="1.1" xmlns:xlink="http://www.w3.org/1999/xlink" xmlns:svgjs="http://svgjs.dev/svgjs" width="1440" height="560" preserveAspectRatio="none" viewBox="0 0 1440 560"><g mask="url(&quot;#SvgjsMask1008&quot;)" fill="none"><rect width="1440" height="560" x="0" y="0" fill="rgba(167, 197, 227, 1)"></rect><g transform="translate(0, 0)" stroke-linecap="round" stroke="url(&quot;#SvgjsRadialGradient1009&quot;)"><path d="M260 250.66 L260 309.33" stroke-width="15"></path><path d="M280 164 L280 396" stroke-width="15"></path><path d="M300 144.58 L300 415.42" stroke-width="15"></path><path d="M320 249.12 L320 310.88" stroke-width="15"></path><path d="M340 183.86 L340 376.14" stroke-width="15"></path><path d="M360 182.71 L360 377.29" stroke-width="15"></path><path d="M380 163.01 L380 396.99" stroke-width="15"></path><path d="M400 252.78 L400 307.21" stroke-width="15"></path><path d="M420 224.88 L420 335.12" stroke-width="15"></path><path d="M440 130.95 L440 429.05" stroke-width="15"></path><path d="M460 117.96 L460 442.04" stroke-width="15"></path><path d="M480 249.74 L480 310.26" stroke-width="15"></path><path d="M500 228.72 L500 331.28" stroke-width="15"></path><path d="M520 164.61 L520 395.39" stroke-width="15"></path><path d="M540 205.5 L540 354.5" stroke-width="15"></path><path d="M560 127.87 L560 432.13" stroke-width="15"></path><path d="M580 163.23 L580 396.77" stroke-width="15"></path><path d="M600 112.09 L600 447.9" stroke-width="15"></path><path d="M620 220.97 L620 339.03" stroke-width="15"></path><path d="M640 236.2 L640 323.8" stroke-width="15"></path><path d="M660 189.99 L660 370.01" stroke-width="15"></path><path d="M680 190.51 L680 369.49" stroke-width="15"></path><path d="M700 223.13 L700 336.87" stroke-width="15"></path><path d="M720 190.71 L720 369.29" stroke-width="15"></path><path d="M740 253.5 L740 306.5" stroke-width="15"></path><path d="M760 250.95 L760 309.05" stroke-width="15"></path><path d="M780 116.25 L780 443.75" stroke-width="15"></path><path d="M800 236.42 L800 323.58" stroke-width="15"></path><path d="M820 110.77 L820 449.23" stroke-width="15"></path><path d="M840 145.07 L840 414.93" stroke-width="15"></path><path d="M860 253.42 L860 306.58" stroke-width="15"></path><path d="M880 168.55 L880 391.45" stroke-width="15"></path><path d="M900 138.88 L900 421.12" stroke-width="15"></path><path d="M920 117.29 L920 442.71" stroke-width="15"></path><path d="M940 125.19 L940 434.81" stroke-width="15"></path><path d="M960 210.72 L960 349.27" stroke-width="15"></path><path d="M980 199.2 L980 360.8" stroke-width="15"></path><path d="M1000 256.12 L1000 303.88" stroke-width="15"></path><path d="M1020 143.82 L1020 416.18" stroke-width="15"></path><path d="M1040 219.24 L1040 340.76" stroke-width="15"></path><path d="M1060 209.98 L1060 350.02" stroke-width="15"></path><path d="M1080 172.08 L1080 387.92" stroke-width="15"></path><path d="M1100 138.49 L1100 421.51" stroke-width="15"></path><path d="M1120 238.16 L1120 321.85" stroke-width="15"></path><path d="M1140 175.59 L1140 384.41" stroke-width="15"></path><path d="M1160 220.18 L1160 339.82" stroke-width="15"></path><path d="M1180 246.4 L1180 313.6" stroke-width="15"></path></g></g><defs><mask id="SvgjsMask1008"><rect width="1440" height="560" fill="#ffffff"></rect></mask><radialGradient cx="720" cy="280" r="509.87" gradientUnits="userSpaceOnUse" id="SvgjsRadialGradient1009"><stop stop-color="#3a7cc3" offset="0"></stop><stop stop-color="rgba(221, 170, 17, 0.43)" offset="1"></stop></radialGradient></defs></svg>